<svg xmlns="http://www.w3.org/2000/svg" xmlns:xlink="http://www.w3.org/1999/xlink" width="60.17mm" height="60.17mm" viewBox="0 0 170.56 170.56">
  <defs>
    <style>
      .cls-1, .cls-2 {
        fill: #fff;
      }

      .cls-1, .cls-4, .cls-5 {
        stroke: #e94e1b;
        stroke-linecap: round;
        stroke-linejoin: round;
      }

      .cls-1, .cls-4 {
        stroke-width: 3px;
      }

      .cls-3 {
        clip-path: url(#clip-path);
      }

      .cls-4, .cls-5 {
        fill: none;
      }

      .cls-5 {
        stroke-width: 0.46px;
      }
    </style>
    <clipPath id="clip-path">
      <circle class="cls-1" cx="85.28" cy="85.28" r="83.78"/>
    </clipPath>
  </defs>
  <g id="forest">
    <g>
      <circle class="cls-2" cx="85.28" cy="85.28" r="83.78"/>
      <g class="cls-3">
        <path class="cls-1" d="M17.25,134.18c6.36,0,23-2.28,28.91-2.28s20.46,1.11,28.75.86,21.33,0,21.33,0c4.45,0,18.49-1.67,30.69-.86s23.66,1.32,27.39.86"/>
      </g>
      <circle class="cls-4" cx="85.28" cy="85.28" r="83.78"/>
    </g>
    <path class="cls-4" d="M80,111.74s.78,21-6.12,21"/>
    <path class="cls-4" d="M90.53,111.74s-.78,21,6.12,21"/>
    <path class="cls-4" d="M61.22,85.64,42.71,109.46a1.4,1.4,0,0,0,1.09,2.28h83a1.4,1.4,0,0,0,1.09-2.28L110.48,85.64C109.92,85,61.78,85,61.22,85.64Z"/>
    <path class="cls-1" d="M69.35,64.39l-16.06,19a1.4,1.4,0,0,0,1.07,2.3h61.85a1.4,1.4,0,0,0,1.07-2.3L101.35,64.27C100.79,63.61,69.91,63.73,69.35,64.39Z"/>
    <path class="cls-1" d="M85.28,35,62.31,62a1.4,1.4,0,0,0,1.07,2.31h43.8A1.4,1.4,0,0,0,108.25,62Z"/>
    <line class="cls-5" x1="88.35" y1="54.14" x2="101.35" y2="54.14"/>
    <line class="cls-5" x1="73.68" y1="54.26" x2="64.72" y2="64.39"/>
    <line class="cls-5" x1="75.85" y1="53.84" x2="66.76" y2="64.27"/>
    <line class="cls-5" x1="113.03" y1="85.64" x2="103.93" y2="74.34"/>
    <line class="cls-5" x1="110.14" y1="85.64" x2="101.53" y2="73.43"/>
    <line class="cls-5" x1="67.68" y1="66.51" x2="83.43" y2="66.51"/>
    <line class="cls-5" x1="89.51" y1="89.5" x2="111.4" y2="89.5"/>
    <line class="cls-5" x1="49.58" y1="111.23" x2="59.5" y2="98.9"/>
    <line class="cls-5" x1="46.16" y1="111.47" x2="59.5" y2="96.47"/>
    <path class="cls-5" d="M87.62,111.74s-.19,8.69,0,10.16.49,4.1,1.17,5.07"/>
    <path class="cls-5" d="M85.36,111.74s-.12,12.63.46,13.09"/>
    <line class="cls-5" x1="114.93" y1="85.64" x2="109.4" y2="79.33"/>
    <line class="cls-5" x1="67.97" y1="58.61" x2="63.24" y2="63.97"/>
    <line class="cls-5" x1="43.38" y1="111.65" x2="49.22" y2="105.07"/>
    <line class="cls-5" x1="99.33" y1="90.86" x2="112.34" y2="90.86"/>
    <line class="cls-5" x1="89.74" y1="55.27" x2="102.74" y2="55.27"/>
    <line class="cls-5" x1="66.31" y1="67.48" x2="76.32" y2="67.48"/>
  </g>
</svg>
