<svg xmlns="http://www.w3.org/2000/svg" width="142.19mm" height="71.09mm" viewBox="0 0 403.05 201.52">
  <defs>
    <style>
      .cls-1 {
        fill: #fff;
      }

      .cls-10, .cls-2, .cls-3, .cls-4, .cls-5, .cls-7, .cls-8, .cls-9 {
        fill: none;
        stroke-linecap: round;
        stroke-linejoin: round;
      }

      .cls-2, .cls-3, .cls-4, .cls-5 {
        stroke: #e94f1c;
      }

      .cls-2, .cls-7 {
        stroke-width: 3px;
      }

      .cls-3, .cls-8 {
        stroke-width: 1.05px;
      }

      .cls-4, .cls-9 {
        stroke-width: 0.53px;
      }

      .cls-10, .cls-5 {
        stroke-width: 0.62px;
      }

      .cls-6 {
        fill: #e9501d;
      }

      .cls-10, .cls-7, .cls-8, .cls-9 {
        stroke: #fff;
      }
    </style>
  </defs>
  <g id="Layer_1" data-name="Layer 1">
    <rect class="cls-1" x="202.07" y="-0.02" width="201.52" height="201.52"/>
    <circle class="cls-2" cx="306.11" cy="104.75" r="83.78"/>
    <path class="cls-2" d="M307.39,70s-19.91.36-32,11-16.19,17.54-20.72,24.26c-3.77,5.61-10.75,15.1-13.16,20.6l16.83,12.93,1.45-2.42"/>
    <path class="cls-3" d="M268.49,124.78c0-.46-2.49-1.64-2.36-1.92S246.6,117,246.6,117"/>
    <path class="cls-2" d="M258.31,138.74s10-14.06,10.76-14.91,37.07-40.33,38.32-41.46,12.74-11.15,12.74-11.15-21-5.27-30.24,5.61C284.05,83.7,278.44,96.74,277,99.94s-18.65,38.8-18.65,38.8c2.7-.11,112.82-1.45,112.82-1.45a1.42,1.42,0,0,0,0-2.25c-.31-.33-44.24-54.47-44.87-55.93-.12-.28-1.07-1.69-2.14-3.24a40.26,40.26,0,0,0-4-4.65"/>
    <path class="cls-2" d="M324.56,76.34s11.88,5,18.45,16.2,17.44,29.35,17.44,29.35"/>
    <path class="cls-2" d="M274.44,119s79.89-.2,81.48-1"/>
    <line class="cls-3" x1="316.25" y1="70.5" x2="315.72" y2="75.08"/>
    <path class="cls-3" d="M314.24,79.46c.06.73,3,5.13,5.55,8.65a37.77,37.77,0,0,0,3.49,4.34C325,94,328.47,99,334,98.77"/>
    <path class="cls-3" d="M320.13,88.58c.08,1,2.45,8.87,3.85,11.06s4.3,18.32,4.3,18.32"/>
    <line class="cls-3" x1="323.72" y1="99.21" x2="334.21" y2="99.21"/>
    <path class="cls-3" d="M332,99.29c0,.88,1.93,12.37,3.16,14s7.5,3.64,7.5,3.64c-.86-3.4-11-22.72-11.17-23.27s-13.55-13.55-14.24-14-6.73,0-6.73,0"/>
    <path class="cls-2" d="M306.44,83.36s8.23,1.92,10.26,13.91,1.77,15.44,1.77,15.44"/>
    <line class="cls-2" x1="293.33" y1="97.47" x2="316.7" y2="97.27"/>
    <path class="cls-3" d="M286.6,104.75s-.46,7.73.73,10.44l1.18,2.72"/>
    <path class="cls-3" d="M288.93,102.23s.33,11.46.85,12.26,1.55,3.41,1.72,3.4"/>
    <path class="cls-3" d="M336.61,114.49a13.24,13.24,0,0,0-4.39-1c-1.9.09-42.44,1-42.44,1"/>
    <path class="cls-4" d="M257.55,138.38c.05.4.31,1.26.76,1.16a.94.94,0,0,0,.69-1.16"/>
    <path class="cls-4" d="M241.48,125.81s-.92.37-.92.81,1.54-.34,1.49-.38"/>
    <path class="cls-4" d="M240.81,127a1.2,1.2,0,0,0,0,.55"/>
    <path class="cls-4" d="M248.13,117.17S259.68,100.46,260,100.3"/>
    <path class="cls-4" d="M250,117.82a45.35,45.35,0,0,1,3.41-5.57c1.72-2.36,5.36-7.29,5.52-7.36"/>
    <path class="cls-4" d="M253.08,119.15s1.47-2.4,3.42-5.08"/>
    <path class="cls-4" d="M251.56,118.49s3-4.87,4.94-7.54"/>
    <path class="cls-4" d="M254.79,119.51s1.48-2.4,3.42-5.07"/>
    <path class="cls-4" d="M259.76,120.64c.17,0,.83-1.77,2.22-4.42"/>
    <path class="cls-4" d="M261.57,121.29c.05-.09,1.24-2.67,2.71-5.17"/>
    <path class="cls-5" d="M263.53,122.21l2-3.72"/>
    <path class="cls-4" d="M256.5,120s-.52.64,1.43-2"/>
    <path class="cls-4" d="M274.44,114s10.16-11.18,10.89-11.75"/>
    <path class="cls-4" d="M279.89,106.05a27.2,27.2,0,0,1,2.41-2.34"/>
    <path class="cls-4" d="M276.78,80.1s8.73-4.18,9.08-4.18"/>
    <path class="cls-4" d="M275.13,83.17c.62-.21,11.87-6.61,12.38-6.52"/>
    <path class="cls-4" d="M271,86.61s10.44-5.15,11.26-5.33"/>
    <path class="cls-4" d="M302.2,71.4s9.56-1.52,9.89-1.42"/>
    <path class="cls-4" d="M302.45,74.21s13.47-2.48,13.8-2.38"/>
    <path class="cls-4" d="M305,72.34s10-1.94,10.29-1.84"/>
    <path class="cls-4" d="M242.33,126.69s3-4.87,4.94-7.54"/>
    <path class="cls-4" d="M244.13,128s3-4.87,5-7.55"/>
    <path class="cls-4" d="M243.18,127.31s1.48-2.4,3.42-5.07"/>
    <path class="cls-4" d="M247.1,129.51s1.48-2.4,3.43-5.07"/>
    <path class="cls-4" d="M245,128.51s-.51.64,1.43-2"/>
    <path class="cls-4" d="M245.92,129s-.52.64,1.43-2"/>
    <path class="cls-4" d="M248,130s-.51.65,1.43-2"/>
    <path class="cls-4" d="M248.44,130.81l.94-1.3"/>
    <path class="cls-4" d="M320.56,85.12s8.82,12.22,12.27,11.37"/>
    <path class="cls-4" d="M326.69,90.42s3.58,4.41,5.28,4.37"/>
    <path class="cls-4" d="M329.33,96.53s3,1.13,4,.94"/>
    <path class="cls-4" d="M333.33,101s2.86,6.85,4.3,8"/>
    <path class="cls-4" d="M332.83,103.27s3.55,7.36,5.29,8.06"/>
    <line class="cls-4" x1="311.45" y1="113.98" x2="311.45" y2="110.95"/>
    <line class="cls-4" x1="314.29" y1="113.95" x2="314.29" y2="106.05"/>
    <line class="cls-4" x1="315.7" y1="113.98" x2="315.7" y2="110"/>
    <line class="cls-4" x1="312.87" y1="113.95" x2="312.87" y2="108.1"/>
    <line class="cls-4" x1="326.34" y1="109.29" x2="322.07" y2="105.31"/>
    <line class="cls-4" x1="324.56" y1="113.48" x2="320.29" y2="109.49"/>
    <line class="cls-4" x1="327.78" y1="114.46" x2="323.51" y2="110.47"/>
    <line class="cls-4" x1="323.38" y1="113.95" x2="321.37" y2="112.08"/>
  </g>
  <g id="all_copy" data-name="all copy">
    <rect class="cls-6" width="201.52" height="201.52"/>
    <circle class="cls-7" cx="100.76" cy="100.76" r="83.78"/>
    <path class="cls-7" d="M102,66s-19.91.36-32,11S53.82,94.5,49.29,101.22c-3.77,5.61-10.75,15.11-13.16,20.6L53,134.75l1.46-2.42"/>
    <path class="cls-8" d="M63.14,120.79c0-.46-2.49-1.64-2.36-1.92S41.25,113,41.25,113"/>
    <path class="cls-7" d="M53,134.75s10-14.06,10.77-14.91S100.79,79.51,102,78.39s12.74-11.15,12.74-11.15-21-5.28-30.24,5.61C78.7,79.71,73.09,92.76,71.6,96S53,134.75,53,134.75c2.71-.11,112.83-1.45,112.83-1.45a1.43,1.43,0,0,0,0-2.25c-.31-.33-44.24-54.46-44.87-55.93-.12-.28-1.07-1.69-2.15-3.24a40,40,0,0,0-4-4.64"/>
    <path class="cls-7" d="M119.21,72.35s11.87,5,18.45,16.2,17.44,29.36,17.44,29.36"/>
    <path class="cls-7" d="M69.09,115s79.88-.19,81.48-1"/>
    <line class="cls-8" x1="110.9" y1="66.52" x2="110.37" y2="71.09"/>
    <path class="cls-8" d="M108.89,75.47c.06.74,3,5.14,5.55,8.66a38.72,38.72,0,0,0,3.49,4.34c1.75,1.58,5.19,6.58,10.71,6.32"/>
    <path class="cls-8" d="M114.78,84.6c.08,1,2.44,8.87,3.85,11.06s4.3,18.31,4.3,18.31"/>
    <line class="cls-8" x1="118.36" y1="95.22" x2="128.86" y2="95.22"/>
    <path class="cls-8" d="M126.61,95.31c0,.88,1.93,12.37,3.16,14s7.5,3.65,7.5,3.65c-.86-3.41-11-22.72-11.17-23.28s-13.55-13.54-14.24-14-6.73,0-6.73,0"/>
    <path class="cls-7" d="M101.08,79.38s8.24,1.92,10.27,13.9,1.77,15.45,1.77,15.45"/>
    <line class="cls-7" x1="87.98" y1="93.48" x2="111.35" y2="93.28"/>
    <path class="cls-8" d="M81.25,100.77s-.46,7.72.72,10.44l1.19,2.71"/>
    <path class="cls-8" d="M83.58,98.24s.33,11.47.85,12.26,1.55,3.41,1.72,3.41"/>
    <path class="cls-8" d="M131.25,110.5a13.5,13.5,0,0,0-4.38-1c-1.9.09-42.44,1-42.44,1"/>
    <path class="cls-9" d="M52.19,134.4c.06.4.32,1.25.76,1.16a.94.94,0,0,0,.7-1.16"/>
    <path class="cls-9" d="M36.13,121.82s-.93.37-.93.82,1.55-.35,1.49-.39"/>
    <path class="cls-9" d="M35.45,123a1.38,1.38,0,0,0,0,.55"/>
    <path class="cls-9" d="M42.77,113.18s11.56-16.7,11.89-16.87"/>
    <path class="cls-9" d="M44.69,113.84a45.89,45.89,0,0,1,3.41-5.58c1.72-2.35,5.36-7.28,5.51-7.36"/>
    <path class="cls-9" d="M47.72,115.16s1.48-2.4,3.43-5.07"/>
    <path class="cls-9" d="M46.21,114.5s3-4.86,4.94-7.54"/>
    <path class="cls-9" d="M49.44,115.53s1.47-2.4,3.42-5.08"/>
    <path class="cls-9" d="M54.41,116.66c.16,0,.83-1.78,2.22-4.43"/>
    <path class="cls-9" d="M56.22,117.3c.05-.09,1.23-2.66,2.71-5.17"/>
    <path class="cls-10" d="M58.18,118.23l2-3.73"/>
    <path class="cls-9" d="M51.15,116s-.52.65,1.43-2"/>
    <path class="cls-9" d="M69.09,110S79.25,98.81,80,98.24"/>
    <path class="cls-9" d="M74.53,102.07A28.92,28.92,0,0,1,77,99.72"/>
    <path class="cls-9" d="M71.43,76.11s8.73-4.17,9.07-4.17"/>
    <path class="cls-9" d="M69.78,79.19c.62-.22,11.87-6.62,12.38-6.53"/>
    <path class="cls-9" d="M65.69,82.63S76.12,77.47,77,77.3"/>
    <path class="cls-9" d="M96.85,67.41s9.56-1.51,9.89-1.42"/>
    <path class="cls-9" d="M97.1,70.23s13.47-2.49,13.8-2.39"/>
    <path class="cls-9" d="M99.64,68.35s10-1.93,10.3-1.83"/>
    <path class="cls-9" d="M37,122.71s3-4.87,5-7.55"/>
    <path class="cls-9" d="M38.78,124s3-4.87,4.94-7.54"/>
    <path class="cls-9" d="M37.83,123.33s1.47-2.4,3.42-5.08"/>
    <path class="cls-9" d="M41.75,125.53s1.48-2.4,3.42-5.08"/>
    <path class="cls-9" d="M39.6,124.52s-.52.65,1.43-2"/>
    <path class="cls-9" d="M40.57,125s-.52.65,1.43-2"/>
    <path class="cls-9" d="M42.6,126s-.52.65,1.43-2"/>
    <path class="cls-9" d="M43.09,126.83s-1,1.37.94-1.3"/>
    <path class="cls-9" d="M115.21,81.13S124,93.36,127.48,92.5"/>
    <path class="cls-9" d="M121.34,86.44s3.58,4.4,5.28,4.37"/>
    <path class="cls-9" d="M124,92.55s3,1.13,4,.93"/>
    <path class="cls-9" d="M128,97.05s2.86,6.85,4.31,8"/>
    <path class="cls-9" d="M127.48,99.28s3.55,7.37,5.28,8.07"/>
    <line class="cls-9" x1="106.1" y1="110" x2="106.1" y2="106.96"/>
    <line class="cls-9" x1="108.94" y1="109.96" x2="108.94" y2="102.07"/>
    <line class="cls-9" x1="110.35" y1="110" x2="110.35" y2="106.02"/>
    <line class="cls-9" x1="107.52" y1="109.96" x2="107.52" y2="104.12"/>
    <line class="cls-9" x1="120.99" y1="105.31" x2="116.72" y2="101.32"/>
    <line class="cls-9" x1="119.21" y1="109.49" x2="114.93" y2="105.5"/>
    <line class="cls-9" x1="122.43" y1="110.47" x2="118.16" y2="106.48"/>
    <line class="cls-9" x1="118.02" y1="109.96" x2="116.02" y2="108.09"/>
  </g>
</svg>
