<svg id="Layer_1" data-name="Layer 1" xmlns="http://www.w3.org/2000/svg" width="60.17mm" height="60.17mm" viewBox="0 0 170.56 170.56">
  <defs>
    <style>
      .cls-1, .cls-2, .cls-3, .cls-4 {
        fill: none;
        stroke: #e94f1c;
        stroke-linecap: round;
        stroke-linejoin: round;
      }

      .cls-1 {
        stroke-width: 3px;
      }

      .cls-2 {
        stroke-width: 1.05px;
      }

      .cls-3 {
        stroke-width: 0.53px;
      }

      .cls-4 {
        stroke-width: 0.62px;
      }
    </style>
  </defs>
  <circle class="cls-1" cx="85.28" cy="85.28" r="83.78"/>
  <path class="cls-1" d="M86.56,50.48s-19.91.36-32,11S38.34,79,33.81,85.74c-3.77,5.61-10.75,15.11-13.16,20.6l16.82,12.93,1.46-2.42"/>
  <path class="cls-2" d="M47.66,105.31c0-.46-2.49-1.64-2.36-1.92s-19.53-5.88-19.53-5.88"/>
  <path class="cls-1" d="M37.47,119.27s10.05-14.06,10.77-14.91S85.31,64,86.56,62.91,99.3,51.76,99.3,51.76s-21-5.28-30.25,5.61c-5.83,6.86-11.44,19.91-12.93,23.11s-18.65,38.79-18.65,38.79c2.71-.11,112.83-1.45,112.83-1.45a1.43,1.43,0,0,0,0-2.25c-.31-.33-44.24-54.46-44.87-55.93-.12-.28-1.07-1.69-2.15-3.24a40,40,0,0,0-4-4.64"/>
  <path class="cls-1" d="M103.73,56.87s11.87,5,18.45,16.2,17.44,29.36,17.44,29.36"/>
  <path class="cls-1" d="M53.61,99.49s79.88-.19,81.48-1"/>
  <line class="cls-2" x1="95.42" y1="51.04" x2="94.89" y2="55.61"/>
  <path class="cls-2" d="M93.41,60c.06.73,3,5.14,5.55,8.66A37.59,37.59,0,0,0,102.45,73c1.75,1.58,5.19,6.58,10.71,6.32"/>
  <path class="cls-2" d="M99.3,69.12c.08,1,2.44,8.87,3.85,11.06s4.3,18.31,4.3,18.31"/>
  <line class="cls-2" x1="102.88" y1="79.74" x2="113.38" y2="79.74"/>
  <path class="cls-2" d="M111.13,79.83c0,.88,1.93,12.37,3.16,14s7.5,3.65,7.5,3.65c-.86-3.41-11-22.72-11.17-23.28s-13.55-13.54-14.24-14-6.73,0-6.73,0"/>
  <path class="cls-1" d="M85.6,63.9s8.24,1.92,10.27,13.9,1.77,15.45,1.77,15.45"/>
  <line class="cls-1" x1="72.5" y1="78" x2="95.87" y2="77.8"/>
  <path class="cls-2" d="M65.77,85.29s-.46,7.72.72,10.44l1.19,2.71"/>
  <path class="cls-2" d="M68.1,82.76S68.43,94.23,69,95s1.55,3.41,1.72,3.41"/>
  <path class="cls-2" d="M115.77,95a13.5,13.5,0,0,0-4.38-1C109.49,94.1,69,95,69,95"/>
  <path class="cls-3" d="M36.71,118.92c.06.4.32,1.25.76,1.16a.94.94,0,0,0,.7-1.16"/>
  <path class="cls-3" d="M20.65,106.34s-.93.37-.93.82,1.55-.35,1.49-.39"/>
  <path class="cls-3" d="M20,107.51a1.38,1.38,0,0,0,0,.55"/>
  <path class="cls-3" d="M27.29,97.7S38.85,81,39.18,80.83"/>
  <path class="cls-3" d="M29.21,98.35a46.21,46.21,0,0,1,3.41-5.57c1.72-2.35,5.36-7.28,5.51-7.36"/>
  <path class="cls-3" d="M32.24,99.68s1.48-2.4,3.43-5.07"/>
  <path class="cls-3" d="M30.73,99s3-4.86,4.94-7.54"/>
  <path class="cls-3" d="M34,100.05s1.47-2.4,3.42-5.08"/>
  <path class="cls-3" d="M38.93,101.18c.16,0,.83-1.78,2.22-4.43"/>
  <path class="cls-3" d="M40.74,101.82c0-.09,1.23-2.66,2.7-5.17"/>
  <path class="cls-4" d="M42.7,102.75,44.65,99"/>
  <path class="cls-3" d="M35.67,100.52s-.52.65,1.43-2"/>
  <path class="cls-3" d="M53.61,94.52S63.77,83.33,64.5,82.76"/>
  <path class="cls-3" d="M59.05,86.59a28.92,28.92,0,0,1,2.42-2.35"/>
  <path class="cls-3" d="M56,60.63s8.73-4.17,9.07-4.17"/>
  <path class="cls-3" d="M54.3,63.71c.62-.22,11.87-6.62,12.38-6.53"/>
  <path class="cls-3" d="M50.21,67.15S60.64,62,61.47,61.82"/>
  <path class="cls-3" d="M81.37,51.93s9.56-1.51,9.89-1.42"/>
  <path class="cls-3" d="M81.62,54.75s13.47-2.49,13.8-2.39"/>
  <path class="cls-3" d="M84.16,52.87s10-1.93,10.3-1.83"/>
  <path class="cls-3" d="M21.49,107.23s3-4.87,5-7.55"/>
  <path class="cls-3" d="M23.3,108.52s3-4.87,4.94-7.54"/>
  <path class="cls-3" d="M22.35,107.85s1.47-2.4,3.42-5.08"/>
  <path class="cls-3" d="M26.27,110.05s1.48-2.4,3.42-5.08"/>
  <path class="cls-3" d="M24.12,109s-.52.65,1.43-2"/>
  <path class="cls-3" d="M25.09,109.5s-.52.65,1.43-2"/>
  <path class="cls-3" d="M27.12,110.55s-.52.65,1.43-2"/>
  <path class="cls-3" d="M27.61,111.35s-1,1.37.94-1.3"/>
  <path class="cls-3" d="M99.73,65.65S108.54,77.88,112,77"/>
  <path class="cls-3" d="M105.86,71s3.58,4.4,5.28,4.37"/>
  <path class="cls-3" d="M108.5,77.07s3,1.13,4,.93"/>
  <path class="cls-3" d="M112.49,81.57s2.86,6.85,4.31,8"/>
  <path class="cls-3" d="M112,83.8s3.55,7.37,5.28,8.07"/>
  <line class="cls-3" x1="90.62" y1="94.52" x2="90.62" y2="91.48"/>
  <line class="cls-3" x1="93.46" y1="94.48" x2="93.46" y2="86.59"/>
  <line class="cls-3" x1="94.87" y1="94.52" x2="94.87" y2="90.53"/>
  <line class="cls-3" x1="92.04" y1="94.48" x2="92.04" y2="88.64"/>
  <line class="cls-3" x1="105.51" y1="89.83" x2="101.24" y2="85.84"/>
  <line class="cls-3" x1="103.73" y1="94.01" x2="99.45" y2="90.02"/>
  <line class="cls-3" x1="106.95" y1="94.99" x2="102.68" y2="91"/>
  <line class="cls-3" x1="102.54" y1="94.48" x2="100.54" y2="92.61"/>
</svg>
