<svg id="Layer_1" data-name="Layer 1" xmlns="http://www.w3.org/2000/svg" width="59.52mm" height="59.52mm" viewBox="0 0 168.72 168.72">
  <defs>
    <style>
      .cls-1, .cls-2, .cls-3, .cls-4 {
        fill: none;
        stroke: #e94e1b;
        stroke-linecap: round;
        stroke-linejoin: round;
      }

      .cls-1 {
        stroke-width: 1.16px;
      }

      .cls-2 {
        stroke-width: 1.05px;
      }

      .cls-3 {
        stroke-width: 0.53px;
      }

      .cls-4 {
        stroke-width: 0.62px;
      }
    </style>
  </defs>
  <circle class="cls-1" cx="84.36" cy="84.36" r="83.78"/>
  <path class="cls-2" d="M85.64,49.56s-19.91.36-32,11S37.42,78.1,32.89,84.82c-3.78,5.61-10.76,15.11-13.16,20.6l16.82,12.93L38,115.93"/>
  <path class="cls-2" d="M46.74,104.39c0-.46-2.49-1.64-2.36-1.92s-19.53-5.88-19.53-5.88"/>
  <path class="cls-2" d="M36.55,118.35s10.05-14.06,10.76-14.91S84.39,63.11,85.64,62,98.38,50.84,98.38,50.84s-21-5.28-30.25,5.6C62.3,63.31,56.69,76.35,55.2,79.56s-18.65,38.79-18.65,38.79c2.71-.11,112.82-1.45,112.82-1.45a1.42,1.42,0,0,0,0-2.25c-.3-.33-44.24-54.47-44.86-55.93-.12-.28-1.07-1.69-2.15-3.24a40,40,0,0,0-4-4.64"/>
  <path class="cls-2" d="M102.8,56s11.88,5,18.46,16.2S138.7,101.5,138.7,101.5"/>
  <path class="cls-2" d="M52.69,97.57s79.88-.19,81.48-1"/>
  <line class="cls-2" x1="94.5" y1="50.11" x2="93.96" y2="54.69"/>
  <path class="cls-2" d="M92.49,59.07c.05.73,3,5.14,5.55,8.66a40,40,0,0,0,3.48,4.34c1.76,1.57,5.2,6.58,10.71,6.31"/>
  <path class="cls-2" d="M98.38,68.2c.07,1,2.44,8.86,3.85,11.06s4.29,18.31,4.29,18.31"/>
  <line class="cls-2" x1="101.96" y1="78.82" x2="112.46" y2="78.82"/>
  <path class="cls-2" d="M110.21,78.91c0,.87,1.93,12.36,3.16,14s7.5,3.65,7.5,3.65c-.86-3.41-11-22.73-11.17-23.28s-13.55-13.55-14.24-14-6.74,0-6.74,0"/>
  <path class="cls-2" d="M84.68,63S92.91,64.89,95,76.88s1.74,16.21,1.74,16.21"/>
  <line class="cls-2" x1="71.58" y1="77.08" x2="94.95" y2="76.88"/>
  <path class="cls-2" d="M64.85,84.37s-.46,7.72.72,10.43l1.18,2.72"/>
  <path class="cls-2" d="M67.18,81.84s.33,11.47.85,12.26,1.54,3.41,1.72,3.41"/>
  <path class="cls-2" d="M114.85,94.1a13.21,13.21,0,0,0-4.38-1c-1.9.09-42.44,1-42.44,1"/>
  <path class="cls-3" d="M35.79,118c.06.4.32,1.25.76,1.15a.92.92,0,0,0,.69-1.15"/>
  <path class="cls-3" d="M19.73,105.42s-.93.37-.93.82,1.54-.35,1.49-.39"/>
  <path class="cls-3" d="M19.05,106.59a1.37,1.37,0,0,0,0,.55"/>
  <path class="cls-3" d="M26.37,96.78S37.93,80.07,38.26,79.91"/>
  <path class="cls-3" d="M28.29,97.43a46.21,46.21,0,0,1,3.41-5.57c1.72-2.36,5.36-7.28,5.51-7.36"/>
  <path class="cls-3" d="M31.32,98.76s1.48-2.4,3.43-5.08"/>
  <path class="cls-3" d="M29.8,98.1s3-4.87,4.95-7.54"/>
  <path class="cls-3" d="M33,99.13s1.48-2.41,3.43-5.08"/>
  <path class="cls-3" d="M38,100.26c.16,0,.83-1.78,2.22-4.43"/>
  <path class="cls-3" d="M39.82,100.9c0-.09,1.23-2.66,2.7-5.17"/>
  <path class="cls-4" d="M41.78,101.83l1.95-3.73"/>
  <path class="cls-3" d="M34.75,99.6s-.52.64,1.42-2"/>
  <path class="cls-3" d="M52.69,93.59S62.84,82.41,63.58,81.84"/>
  <path class="cls-3" d="M58.13,85.67a27.42,27.42,0,0,1,2.42-2.35"/>
  <path class="cls-3" d="M55,59.71s8.72-4.18,9.07-4.18"/>
  <path class="cls-3" d="M53.37,62.79c.63-.22,11.88-6.62,12.39-6.53"/>
  <path class="cls-3" d="M49.28,66.23s10.44-5.16,11.27-5.34"/>
  <path class="cls-3" d="M80.45,51s9.55-1.52,9.89-1.42"/>
  <path class="cls-3" d="M80.7,53.83s13.46-2.49,13.8-2.39"/>
  <path class="cls-3" d="M83.24,52s10-1.93,10.29-1.84"/>
  <path class="cls-3" d="M20.57,106.3s3-4.86,4.94-7.54"/>
  <path class="cls-3" d="M22.38,107.6s3-4.87,4.94-7.54"/>
  <path class="cls-3" d="M21.42,106.93s1.48-2.41,3.43-5.08"/>
  <path class="cls-3" d="M25.35,109.13s1.47-2.4,3.42-5.08"/>
  <path class="cls-3" d="M23.2,108.12s-.52.64,1.43-2"/>
  <path class="cls-3" d="M24.17,108.58s-.52.65,1.43-2"/>
  <path class="cls-3" d="M26.2,109.63s-.52.64,1.43-2"/>
  <path class="cls-3" d="M26.69,110.43s-1,1.37.94-1.3"/>
  <path class="cls-3" d="M98.81,64.73S107.62,77,111.07,76.1"/>
  <path class="cls-3" d="M104.94,70s3.58,4.41,5.28,4.38"/>
  <path class="cls-3" d="M107.58,76.14s3,1.13,4,.94"/>
  <path class="cls-3" d="M111.57,80.64s2.86,6.85,4.31,8"/>
  <path class="cls-3" d="M111.07,82.88s3.56,7.36,5.29,8.06"/>
  <line class="cls-3" x1="90.69" y1="93.59" x2="90.69" y2="90.56"/>
  <line class="cls-3" x1="93.53" y1="93.56" x2="93.53" y2="85.67"/>
  <line class="cls-3" x1="94.95" y1="93.59" x2="94.95" y2="89.61"/>
  <line class="cls-3" x1="92.11" y1="93.56" x2="92.11" y2="87.72"/>
  <line class="cls-3" x1="104.59" y1="88.91" x2="100.32" y2="84.92"/>
  <line class="cls-3" x1="102.8" y1="93.09" x2="98.53" y2="89.1"/>
  <line class="cls-3" x1="106.03" y1="94.07" x2="101.75" y2="90.08"/>
  <line class="cls-3" x1="101.62" y1="93.56" x2="99.62" y2="91.69"/>
</svg>
