<svg xmlns="http://www.w3.org/2000/svg" width="60.17mm" height="60.17mm" viewBox="0 0 170.56 170.56">
  <defs>
    <style>
      .cls-1 {
        fill: #fff;
        stroke-linejoin: round;
      }

      .cls-1, .cls-2, .cls-3 {
        stroke: #e94f1c;
      }

      .cls-1, .cls-3 {
        stroke-linecap: round;
      }

      .cls-1, .cls-2 {
        stroke-width: 3px;
      }

      .cls-2, .cls-3 {
        fill: none;
        stroke-miterlimit: 10;
      }

      .cls-3 {
        stroke-width: 0.55px;
      }
    </style>
  </defs>
  <g id="two_dollar" data-name="two dollar">
    <circle class="cls-1" cx="85.28" cy="85.28" r="83.78"/>
    <g>
      <path class="cls-2" d="M108,135v-7.16a.51.51,0,0,0-.49-.51q-9.64-.52-14.44-6.5t-5.38-17a.54.54,0,0,1,.42-.54l11.43-2.23a.51.51,0,0,1,.61.49,40.16,40.16,0,0,0,1,7.47,11.33,11.33,0,0,0,2.78,5.4,6.77,6.77,0,0,0,5,1.9q3.51,0,5-2.09a8.85,8.85,0,0,0,1.51-5.31,14.13,14.13,0,0,0-2.38-8.46A39.77,39.77,0,0,0,107,93.84L97,85.08A37.09,37.09,0,0,1,92.19,80,21.77,21.77,0,0,1,89,74a23.81,23.81,0,0,1-1.17-7.83q0-8.85,5.06-13.86,4.91-4.87,13.14-5.47a.52.52,0,0,0,.48-.51V39.4a.51.51,0,0,1,.51-.52h3.15a.52.52,0,0,1,.52.52v6.78a.51.51,0,0,0,.48.51,17.7,17.7,0,0,1,7.69,2.16A15.09,15.09,0,0,1,124,53.71a22.54,22.54,0,0,1,2.82,6.67,39.39,39.39,0,0,1,1.09,7.22.51.51,0,0,1-.43.54l-11.23,2a.5.5,0,0,1-.6-.48,46.53,46.53,0,0,0-.75-6.08,9.22,9.22,0,0,0-2.19-4.67,5.67,5.67,0,0,0-4.72-1.51,6.41,6.41,0,0,0-5,2.14,7.76,7.76,0,0,0-1.71,5.16,11.36,11.36,0,0,0,1.85,6.76,34.12,34.12,0,0,0,4.57,5.1l9.92,8.66a54.21,54.21,0,0,1,5.79,6.13,28,28,0,0,1,4.28,7.39,25.4,25.4,0,0,1,1.61,9.34,20.59,20.59,0,0,1-2.09,9.39,17.3,17.3,0,0,1-5.89,6.66,19.89,19.89,0,0,1-8.59,3.06.51.51,0,0,0-.46.5V135a.51.51,0,0,1-.51.52h-3.15A.52.52,0,0,1,108,135Z"/>
      <path class="cls-3" d="M111.49,52s6.69,1,9,6.67"/>
      <path class="cls-3" d="M110,49.45a14.4,14.4,0,0,1,13.07,9.18"/>
      <path class="cls-3" d="M125.85,101.92s2.14,9-1.7,15.62a15,15,0,0,1-12.31,6.92"/>
      <path class="cls-3" d="M123.57,102.9s2,8.28-1.92,13.82a11.6,11.6,0,0,1-8.94,5"/>
      <path class="cls-3" d="M121.44,104.48s1.24,6.77-1,10c-1.47,2.13-3.55,4.13-6.43,4.31"/>
    </g>
    <g>
      <path class="cls-2" d="M58.25,135v-7.16a.51.51,0,0,0-.49-.51q-9.65-.52-14.44-6.5t-5.38-17a.54.54,0,0,1,.42-.54l11.43-2.23a.52.52,0,0,1,.61.49,40.16,40.16,0,0,0,1,7.47,11.32,11.32,0,0,0,2.77,5.4,6.81,6.81,0,0,0,5,1.9q3.51,0,5-2.09a8.85,8.85,0,0,0,1.51-5.31,14.2,14.2,0,0,0-2.38-8.46,39.77,39.77,0,0,0-6.18-6.61l-10-8.76A37.09,37.09,0,0,1,42.4,80a21.26,21.26,0,0,1-3.21-6A23.81,23.81,0,0,1,38,66.12q0-8.85,5.06-13.86Q48,47.39,56.21,46.79a.51.51,0,0,0,.48-.51V39.4a.52.52,0,0,1,.52-.52h3.15a.52.52,0,0,1,.52.52v6.78a.51.51,0,0,0,.48.51,17.74,17.74,0,0,1,7.69,2.16,15,15,0,0,1,5.1,4.86A22,22,0,0,1,77,60.38a39.4,39.4,0,0,1,1.1,7.22.52.52,0,0,1-.43.54l-11.24,2a.51.51,0,0,1-.6-.48,46.62,46.62,0,0,0-.74-6.08,9.22,9.22,0,0,0-2.19-4.67,5.67,5.67,0,0,0-4.72-1.51,6.45,6.45,0,0,0-5,2.14,7.81,7.81,0,0,0-1.7,5.16,11.36,11.36,0,0,0,1.85,6.76,33.57,33.57,0,0,0,4.57,5.1l9.92,8.66a54.21,54.21,0,0,1,5.79,6.13,28,28,0,0,1,4.28,7.39,25.4,25.4,0,0,1,1.6,9.34,20.46,20.46,0,0,1-2.09,9.39,17.2,17.2,0,0,1-5.88,6.66,19.94,19.94,0,0,1-8.6,3.06.51.51,0,0,0-.45.5V135a.51.51,0,0,1-.51.52H58.77A.52.52,0,0,1,58.25,135Z"/>
      <path class="cls-3" d="M61.7,52s6.68,1,9,6.67"/>
      <path class="cls-3" d="M60.22,49.45a14.41,14.41,0,0,1,13.07,9.18"/>
      <path class="cls-3" d="M76.06,101.92s2.14,9-1.7,15.62A15,15,0,0,1,62,124.46"/>
      <path class="cls-3" d="M73.78,102.9s2,8.28-1.92,13.82a11.61,11.61,0,0,1-8.94,5"/>
      <path class="cls-3" d="M71.65,104.48s1.24,6.77-1,10c-1.46,2.13-3.54,4.13-6.42,4.31"/>
    </g>
  </g>
</svg>
